<svg width="515" height="447" viewBox="0 0 515 447" fill="none" xmlns="http://www.w3.org/2000/svg">
<path d="M76.9714 99.5C98.4945 87.0736 126.016 94.448 138.443 115.971L290.082 378.618C302.508 400.141 295.134 427.663 273.611 440.089C252.088 452.516 224.566 445.141 212.14 423.618L60.5002 160.971C48.0738 139.448 55.4482 111.926 76.9714 99.5Z" fill="black"/>
<path d="M168.776 7.60613C190.299 -4.82027 217.82 2.55411 230.247 24.0773L362.49 253.129C374.916 274.652 367.542 302.174 346.019 314.6C324.495 327.026 296.974 319.652 284.547 298.129L152.304 69.0772C139.878 47.5541 147.252 20.0325 168.776 7.60613Z" fill="black"/>
<path d="M311.018 6.26074C332.541 -6.16567 360.063 1.20871 372.489 22.7319L433.484 128.378C445.911 149.901 438.536 177.423 417.013 189.849C395.49 202.276 367.968 194.901 355.542 173.378L294.547 67.7319C282.121 46.2087 289.495 18.6871 311.018 6.26074Z" fill="black"/>
<circle cx="45" cy="46" r="45" fill="black"/>
<path d="M515 46C515 70.8528 494.853 91 470 91C445.147 91 425 70.8528 425 46C425 21.1472 445.147 1 470 1C494.853 1 515 21.1472 515 46Z" fill="#EC0202"/>
</svg>
